<mxfile host="65bd71144e">
    <diagram id="V_HSt5qLo81DljEo9T2T" name="Page-1">
        <mxGraphModel dx="867" dy="602" grid="1" gridSize="10" guides="1" tooltips="1" connect="1" arrows="1" fold="1" page="1" pageScale="1" pageWidth="850" pageHeight="1100" math="0" shadow="0">
            <root>
                <mxCell id="0"/>
                <mxCell id="1" parent="0"/>
                <mxCell id="2" value="&lt;h4 style=&quot;text-align: left;&quot;&gt;&lt;code style=&quot;font-family: var(--monaco-monospace-font);&quot;&gt;readyToEnd&lt;/code&gt;&lt;/h4&gt;" style="swimlane;fontStyle=0;childLayout=stackLayout;horizontal=1;startSize=30;horizontalStack=0;resizeParent=1;resizeParentMax=0;resizeLast=0;collapsible=1;marginBottom=0;whiteSpace=wrap;html=1;" vertex="1" parent="1">
                    <mxGeometry x="40" y="40" width="200" height="520" as="geometry"/>
                </mxCell>
                <mxCell id="7" value="&lt;h4&gt;This function checks if the current player is in a position to end the game, based on their pieces' positions on the board.&lt;/h4&gt;" style="text;strokeColor=none;fillColor=none;align=left;verticalAlign=middle;spacingLeft=4;spacingRight=4;overflow=hidden;points=[[0,0.5],[1,0.5]];portConstraint=eastwest;rotatable=0;whiteSpace=wrap;html=1;" vertex="1" parent="2">
                    <mxGeometry y="30" width="200" height="90" as="geometry"/>
                </mxCell>
                <mxCell id="4" value="&lt;h4&gt;&lt;strong style=&quot;background-color: initial;&quot;&gt;Logic:&lt;/strong&gt;&lt;br&gt;&lt;strong style=&quot;background-color: initial;&quot;&gt;Collecting Player's Positions&lt;/strong&gt;&lt;span style=&quot;background-color: initial; font-weight: normal;&quot;&gt;: It iterates through the game board, identifying which bars (or positions) contain pieces belonging to the current player (&lt;/span&gt;&lt;code style=&quot;font-weight: normal;&quot;&gt;thisTurn.turnPlayer.name&lt;/code&gt;&lt;span style=&quot;background-color: initial; font-weight: normal;&quot;&gt;). The indices of these bars are stored in the &lt;/span&gt;&lt;code style=&quot;font-weight: normal;&quot;&gt;containing&lt;/code&gt;&lt;span style=&quot;background-color: initial; font-weight: normal;&quot;&gt; array.&lt;/span&gt;&lt;br&gt;&lt;strong style=&quot;background-color: initial;&quot;&gt;Checking Position Conditions&lt;/strong&gt;&lt;span style=&quot;background-color: initial; font-weight: normal;&quot;&gt;:&lt;/span&gt;If the current player is &lt;strong style=&quot;background-color: initial;&quot;&gt;White&lt;/strong&gt;&lt;span style=&quot;background-color: initial; font-weight: normal;&quot;&gt;:&lt;br&gt;&lt;/span&gt;It checks if all the player's pieces are located in bars indexed &lt;strong style=&quot;background-color: initial;&quot;&gt;18 or higher&lt;/strong&gt;&lt;span style=&quot;background-color: initial; font-weight: normal;&quot;&gt; (implying that they are all in the home board).&lt;/span&gt;&lt;br&gt;If the current player is &lt;strong style=&quot;background-color: initial;&quot;&gt;Black&lt;/strong&gt;&lt;span style=&quot;background-color: initial; font-weight: normal;&quot;&gt;:&lt;br&gt;&lt;/span&gt;It checks if all the pieces are in bars indexed &lt;strong style=&quot;background-color: initial;&quot;&gt;6 to 11&lt;/strong&gt;&lt;span style=&quot;background-color: initial; font-weight: normal;&quot;&gt;, indicating they are also in their home board.&lt;/span&gt;&lt;br&gt;If any piece is outside these bounds, it returns &lt;code style=&quot;font-weight: normal;&quot;&gt;false&lt;/code&gt;&lt;span style=&quot;background-color: initial; font-weight: normal;&quot;&gt;, indicating that the player is not ready to end the game.&lt;/span&gt;&lt;br&gt;If all pieces meet the conditions, it returns &lt;code style=&quot;font-weight: normal;&quot;&gt;true&lt;/code&gt;&lt;span style=&quot;background-color: initial; font-weight: normal;&quot;&gt;.&lt;/span&gt;&lt;br&gt;&lt;/h4&gt;" style="text;strokeColor=none;fillColor=none;align=left;verticalAlign=middle;spacingLeft=4;spacingRight=4;overflow=hidden;points=[[0,0.5],[1,0.5]];portConstraint=eastwest;rotatable=0;whiteSpace=wrap;html=1;" vertex="1" parent="2">
                    <mxGeometry y="120" width="200" height="400" as="geometry"/>
                </mxCell>
                <mxCell id="8" value="&lt;code&gt;celebrateGameEnd&lt;/code&gt;" style="swimlane;fontStyle=0;childLayout=stackLayout;horizontal=1;startSize=30;horizontalStack=0;resizeParent=1;resizeParentMax=0;resizeLast=0;collapsible=1;marginBottom=0;whiteSpace=wrap;html=1;" vertex="1" parent="1">
                    <mxGeometry x="280" y="40" width="200" height="280" as="geometry"/>
                </mxCell>
                <mxCell id="9" value="&lt;h4&gt;This function displays a celebratory toast notification when a player wins the game.&lt;br&gt;&lt;/h4&gt;" style="text;strokeColor=none;fillColor=none;align=left;verticalAlign=middle;spacingLeft=4;spacingRight=4;overflow=hidden;points=[[0,0.5],[1,0.5]];portConstraint=eastwest;rotatable=0;whiteSpace=wrap;html=1;" vertex="1" parent="8">
                    <mxGeometry y="30" width="200" height="90" as="geometry"/>
                </mxCell>
                <mxCell id="10" value="&lt;h4&gt;&lt;strong style=&quot;background-color: initial;&quot;&gt;Logic:&lt;/strong&gt;&lt;br&gt;It constructs a message using the current player's icon (&lt;code style=&quot;font-weight: normal;&quot;&gt;thisTurn.turnPlayer.icon&lt;/code&gt;&lt;span style=&quot;background-color: initial; font-weight: normal;&quot;&gt;) to indicate they have won.&lt;/span&gt;&lt;br&gt;The toast message is displayed with styling from &lt;code style=&quot;font-weight: normal;&quot;&gt;toastStyle(thisTurn)&lt;/code&gt;&lt;span style=&quot;background-color: initial; font-weight: normal;&quot;&gt;.&lt;/span&gt;&lt;br&gt;&lt;/h4&gt;" style="text;strokeColor=none;fillColor=none;align=left;verticalAlign=middle;spacingLeft=4;spacingRight=4;overflow=hidden;points=[[0,0.5],[1,0.5]];portConstraint=eastwest;rotatable=0;whiteSpace=wrap;html=1;" vertex="1" parent="8">
                    <mxGeometry y="120" width="200" height="160" as="geometry"/>
                </mxCell>
                <mxCell id="11" value="Summary" style="swimlane;fontStyle=0;childLayout=stackLayout;horizontal=1;startSize=30;horizontalStack=0;resizeParent=1;resizeParentMax=0;resizeLast=0;collapsible=1;marginBottom=0;whiteSpace=wrap;html=1;labelBackgroundColor=none;" vertex="1" parent="1">
                    <mxGeometry x="520" y="40" width="160" height="280" as="geometry"/>
                </mxCell>
                <mxCell id="12" value="&lt;strong&gt;&lt;code&gt;readyToEnd&lt;/code&gt;&lt;/strong&gt;: Checks if the current player's pieces are in a position to end the game. It ensures the game rules regarding piece placement are adhered to before declaring the game finished." style="text;strokeColor=none;fillColor=none;align=left;verticalAlign=middle;spacingLeft=4;spacingRight=4;overflow=hidden;points=[[0,0.5],[1,0.5]];portConstraint=eastwest;rotatable=0;whiteSpace=wrap;html=1;labelBackgroundColor=none;" vertex="1" parent="11">
                    <mxGeometry y="30" width="160" height="130" as="geometry"/>
                </mxCell>
                <mxCell id="13" value="&lt;strong&gt;&lt;code&gt;celebrateGameEnd&lt;/code&gt;&lt;/strong&gt;: Provides user feedback via a toast notification when a player wins, enhancing the user experience by celebrating their achievement." style="text;strokeColor=none;fillColor=none;align=left;verticalAlign=middle;spacingLeft=4;spacingRight=4;overflow=hidden;points=[[0,0.5],[1,0.5]];portConstraint=eastwest;rotatable=0;whiteSpace=wrap;html=1;labelBackgroundColor=none;" vertex="1" parent="11">
                    <mxGeometry y="160" width="160" height="120" as="geometry"/>
                </mxCell>
            </root>
        </mxGraphModel>
    </diagram>
</mxfile>